<?xml version="1.0" standalone="no"?>
<!DOCTYPE svg PUBLIC "-//W3C//DTD SVG 20010904//EN"
 "http://www.w3.org/TR/2001/REC-SVG-20010904/DTD/svg10.dtd">
<svg version="1.0" xmlns="http://www.w3.org/2000/svg"
 width="700.000000pt" height="700.000000pt" viewBox="0 0 700.000000 700.000000"
 preserveAspectRatio="xMidYMid meet">
<metadata>
Created by potrace 1.11, written by Peter Selinger 2001-2013
</metadata>
<g transform="translate(0.000000,700.000000) scale(0.100000,-0.100000)"
fill="#000000" stroke="none">
<path d="M3279 6645 c-3 -2 -36 -7 -74 -10 -318 -26 -685 -121 -970 -250 -214
-96 -295 -141 -490 -271 -233 -154 -513 -408 -685 -620 -198 -245 -379 -552
-483 -819 -19 -49 -38 -99 -42 -110 -5 -11 -9 -22 -10 -25 -1 -3 -13 -42 -28
-87 -24 -74 -84 -307 -92 -358 -2 -11 -9 -54 -16 -95 -12 -78 -14 -88 -26
-210 -17 -175 -9 -538 17 -720 18 -125 21 -146 47 -260 90 -409 276 -819 528
-1165 40 -55 81 -109 92 -120 10 -11 36 -43 58 -70 51 -64 264 -278 334 -336
29 -24 67 -56 85 -71 53 -47 246 -182 344 -242 193 -117 430 -226 642 -296
118 -38 326 -93 400 -104 19 -3 44 -7 55 -10 40 -8 111 -19 140 -22 17 -1 66
-6 110 -11 44 -4 172 -8 285 -8 237 0 342 8 525 40 44 8 92 16 108 19 15 3 35
7 45 10 9 3 28 7 42 10 98 17 312 86 468 150 770 315 1376 912 1711 1682 56
130 144 396 165 499 3 11 11 54 20 95 24 116 41 230 54 355 9 96 9 482 -1 580
-13 121 -29 228 -47 315 -5 25 -12 56 -14 70 -15 94 -86 324 -146 475 -50 126
-160 358 -172 363 -5 2 -8 8 -8 12 0 12 -82 147 -148 245 -216 316 -523 622
-841 836 -252 171 -535 307 -814 393 -109 34 -241 69 -302 81 -121 22 -205 36
-258 41 -34 3 -73 8 -87 11 -30 6 -516 14 -521 8z m-233 -2023 c12 -9 26 -30
30 -47 4 -16 8 -256 9 -533 2 -277 5 -506 9 -509 3 -3 135 44 293 105 l288
110 -3 396 c-2 285 0 402 9 418 41 81 152 76 179 -8 6 -18 11 -41 10 -51 -1
-10 -2 -167 -1 -349 l1 -332 158 60 c86 33 171 66 187 73 17 7 82 31 145 55
63 23 130 48 148 56 l32 15 0 245 0 246 29 29 c40 39 89 40 133 0 l32 -28 2
-194 c1 -107 3 -202 3 -212 1 -16 4 -16 29 -4 15 8 108 45 207 82 99 37 191
73 205 80 14 6 46 18 71 24 41 11 52 11 82 -4 60 -28 72 -108 24 -153 -12 -11
-155 -71 -317 -132 -162 -62 -297 -114 -298 -116 -4 -3 -3 -325 2 -1014 2
-238 0 -431 -6 -453 -15 -61 -76 -87 -141 -62 -46 19 -46 22 -51 755 -3 381
-6 693 -8 695 -2 1 -57 -19 -123 -45 -66 -25 -129 -50 -140 -54 -11 -5 -96
-37 -190 -72 -93 -36 -180 -69 -191 -75 l-22 -11 2 -579 1 -579 -25 -24 c-48
-48 -115 -41 -149 16 -18 28 -20 52 -21 247 -3 699 -5 841 -15 841 -5 0 -136
-49 -290 -108 l-280 -108 -2 -394 c-1 -217 -2 -405 -3 -418 0 -13 -13 -37 -29
-53 -41 -41 -96 -41 -136 1 l-28 29 -2 371 c-2 204 -5 374 -9 377 -4 5 -322
-111 -441 -161 -16 -7 -44 -18 -61 -25 l-31 -12 2 -297 c2 -315 -1 -338 -46
-362 -52 -29 -118 -10 -138 38 -7 17 -12 122 -13 285 -1 141 -5 257 -9 257 -5
0 -18 -4 -31 -10 -13 -5 -123 -48 -246 -95 -224 -85 -253 -91 -293 -62 -39 29
-51 95 -24 133 8 12 38 31 67 43 29 12 62 26 73 31 11 4 94 36 185 70 91 34
177 68 192 75 15 7 40 16 55 19 l28 6 -3 680 -4 680 30 30 c41 41 89 41 134 1
l33 -29 3 -634 c2 -348 4 -636 5 -640 1 -4 29 4 62 17 33 13 128 49 210 80
163 61 191 73 217 86 10 5 25 9 33 9 14 0 16 58 14 568 -3 618 -4 602 54 627
36 15 70 11 103 -13z"/>
</g>
</svg>
